<mxfile host="Electron" agent="Mozilla/5.0 (Windows NT 10.0; Win64; x64) AppleWebKit/537.36 (KHTML, like Gecko) draw.io/24.5.3 Chrome/124.0.6367.207 Electron/30.0.6 Safari/537.36" modified="2024-07-29T05:28:43.495Z" version="24.5.3" etag="W4GdjY_ohyhTXAmLF3ry" type="device">
  <diagram name="Page-1" id="5lnGvVHmCaMBN2OtGRMw">
    <mxGraphModel dx="1909" dy="1144" grid="1" gridSize="10" guides="1" tooltips="1" connect="1" arrows="1" fold="1" page="1" pageScale="1" pageWidth="850" pageHeight="1100" math="0" shadow="0">
      <root>
        <mxCell id="0" />
        <mxCell id="1" parent="0" />
        <mxCell id="nmrTo1Ritd_TDBO6U9mu-61" value="" style="swimlane;startSize=0;" parent="1" vertex="1">
          <mxGeometry x="60" y="20" width="660" height="1040" as="geometry" />
        </mxCell>
        <mxCell id="CDlkAJvuDb7qCT727NQq-86" value="Reject order" style="ellipse;whiteSpace=wrap;html=1;" vertex="1" parent="nmrTo1Ritd_TDBO6U9mu-61">
          <mxGeometry x="270" y="970" width="120" height="50" as="geometry" />
        </mxCell>
        <mxCell id="nmrTo1Ritd_TDBO6U9mu-17" value="Add leaves quantity" style="ellipse;whiteSpace=wrap;html=1;" parent="nmrTo1Ritd_TDBO6U9mu-61" vertex="1">
          <mxGeometry x="340" y="680" width="120" height="50" as="geometry" />
        </mxCell>
        <mxCell id="nmrTo1Ritd_TDBO6U9mu-27" value="Check leaves quantity" style="ellipse;whiteSpace=wrap;html=1;" parent="nmrTo1Ritd_TDBO6U9mu-61" vertex="1">
          <mxGeometry x="460" y="630" width="120" height="50" as="geometry" />
        </mxCell>
        <mxCell id="nmrTo1Ritd_TDBO6U9mu-44" value="Manage orders" style="ellipse;whiteSpace=wrap;html=1;" parent="nmrTo1Ritd_TDBO6U9mu-61" vertex="1">
          <mxGeometry x="330" y="880" width="120" height="50" as="geometry" />
        </mxCell>
        <mxCell id="nmrTo1Ritd_TDBO6U9mu-45" value="Accept order" style="ellipse;whiteSpace=wrap;html=1;" parent="nmrTo1Ritd_TDBO6U9mu-61" vertex="1">
          <mxGeometry x="160" y="930" width="120" height="50" as="geometry" />
        </mxCell>
        <mxCell id="nmrTo1Ritd_TDBO6U9mu-46" value="Manage fertilizer requests" style="ellipse;whiteSpace=wrap;html=1;" parent="nmrTo1Ritd_TDBO6U9mu-61" vertex="1">
          <mxGeometry x="270" y="810" width="120" height="50" as="geometry" />
        </mxCell>
        <mxCell id="nmrTo1Ritd_TDBO6U9mu-47" value="Approve request" style="ellipse;whiteSpace=wrap;html=1;" parent="nmrTo1Ritd_TDBO6U9mu-61" vertex="1">
          <mxGeometry x="55" y="780" width="120" height="50" as="geometry" />
        </mxCell>
        <mxCell id="nmrTo1Ritd_TDBO6U9mu-43" value="Create the payment sheet" style="ellipse;whiteSpace=wrap;html=1;" parent="nmrTo1Ritd_TDBO6U9mu-61" vertex="1">
          <mxGeometry x="450" y="940" width="120" height="50" as="geometry" />
        </mxCell>
        <mxCell id="CDlkAJvuDb7qCT727NQq-87" value="Reject request" style="ellipse;whiteSpace=wrap;html=1;" vertex="1" parent="nmrTo1Ritd_TDBO6U9mu-61">
          <mxGeometry x="70" y="840" width="120" height="50" as="geometry" />
        </mxCell>
        <mxCell id="CDlkAJvuDb7qCT727NQq-91" value="Confirm leaves delivery" style="ellipse;whiteSpace=wrap;html=1;" vertex="1" parent="nmrTo1Ritd_TDBO6U9mu-61">
          <mxGeometry x="280" y="740" width="120" height="50" as="geometry" />
        </mxCell>
        <mxCell id="CDlkAJvuDb7qCT727NQq-95" value="&amp;lt;&amp;lt;extend&amp;gt;&amp;gt;" style="endArrow=open;startArrow=none;endFill=0;startFill=0;endSize=8;html=1;verticalAlign=bottom;dashed=1;labelBackgroundColor=none;rounded=0;entryX=0;entryY=0;entryDx=0;entryDy=0;exitX=1;exitY=0.5;exitDx=0;exitDy=0;" edge="1" parent="nmrTo1Ritd_TDBO6U9mu-61" source="nmrTo1Ritd_TDBO6U9mu-47" target="nmrTo1Ritd_TDBO6U9mu-46">
          <mxGeometry width="160" relative="1" as="geometry">
            <mxPoint x="100" y="620" as="sourcePoint" />
            <mxPoint x="260" y="620" as="targetPoint" />
          </mxGeometry>
        </mxCell>
        <mxCell id="CDlkAJvuDb7qCT727NQq-96" value="&amp;lt;&amp;lt;extend&amp;gt;&amp;gt;" style="endArrow=open;startArrow=none;endFill=0;startFill=0;endSize=8;html=1;verticalAlign=bottom;dashed=1;labelBackgroundColor=none;rounded=0;entryX=0;entryY=1;entryDx=0;entryDy=0;exitX=1;exitY=0.5;exitDx=0;exitDy=0;" edge="1" parent="nmrTo1Ritd_TDBO6U9mu-61" source="CDlkAJvuDb7qCT727NQq-87" target="nmrTo1Ritd_TDBO6U9mu-46">
          <mxGeometry width="160" relative="1" as="geometry">
            <mxPoint x="110" y="630" as="sourcePoint" />
            <mxPoint x="270" y="630" as="targetPoint" />
          </mxGeometry>
        </mxCell>
        <mxCell id="CDlkAJvuDb7qCT727NQq-97" value="&amp;lt;&amp;lt;extend&amp;gt;&amp;gt;" style="endArrow=open;startArrow=none;endFill=0;startFill=0;endSize=8;html=1;verticalAlign=bottom;dashed=1;labelBackgroundColor=none;rounded=0;entryX=0.5;entryY=1;entryDx=0;entryDy=0;exitX=0.5;exitY=0;exitDx=0;exitDy=0;" edge="1" parent="nmrTo1Ritd_TDBO6U9mu-61" source="CDlkAJvuDb7qCT727NQq-86" target="nmrTo1Ritd_TDBO6U9mu-44">
          <mxGeometry width="160" relative="1" as="geometry">
            <mxPoint x="333.59879926796884" y="997.824715439891" as="sourcePoint" />
            <mxPoint x="280" y="640" as="targetPoint" />
          </mxGeometry>
        </mxCell>
        <mxCell id="CDlkAJvuDb7qCT727NQq-98" value="&amp;lt;&amp;lt;extend&amp;gt;&amp;gt;" style="endArrow=open;startArrow=none;endFill=0;startFill=0;endSize=8;html=1;verticalAlign=bottom;dashed=1;labelBackgroundColor=none;rounded=0;entryX=0;entryY=0.5;entryDx=0;entryDy=0;exitX=1;exitY=0;exitDx=0;exitDy=0;" edge="1" parent="nmrTo1Ritd_TDBO6U9mu-61" source="nmrTo1Ritd_TDBO6U9mu-45" target="nmrTo1Ritd_TDBO6U9mu-44">
          <mxGeometry width="160" relative="1" as="geometry">
            <mxPoint x="120" y="640" as="sourcePoint" />
            <mxPoint x="280" y="640" as="targetPoint" />
          </mxGeometry>
        </mxCell>
        <mxCell id="nmrTo1Ritd_TDBO6U9mu-38" value="Supplement&amp;nbsp;&lt;div&gt;Manager&lt;/div&gt;" style="shape=umlActor;verticalLabelPosition=bottom;verticalAlign=top;html=1;outlineConnect=0;" parent="nmrTo1Ritd_TDBO6U9mu-61" vertex="1">
          <mxGeometry x="730" y="810" width="30" height="60" as="geometry" />
        </mxCell>
        <mxCell id="CDlkAJvuDb7qCT727NQq-52" value="" style="endArrow=none;html=1;rounded=0;entryX=0;entryY=0.3333333333333333;entryDx=0;entryDy=0;entryPerimeter=0;exitX=1;exitY=1;exitDx=0;exitDy=0;" edge="1" parent="nmrTo1Ritd_TDBO6U9mu-61" source="nmrTo1Ritd_TDBO6U9mu-27" target="nmrTo1Ritd_TDBO6U9mu-38">
          <mxGeometry width="50" height="50" relative="1" as="geometry">
            <mxPoint x="540" y="565" as="sourcePoint" />
            <mxPoint x="590" y="515" as="targetPoint" />
          </mxGeometry>
        </mxCell>
        <mxCell id="CDlkAJvuDb7qCT727NQq-51" value="" style="endArrow=none;html=1;rounded=0;entryX=0;entryY=0.3333333333333333;entryDx=0;entryDy=0;entryPerimeter=0;exitX=1;exitY=0.5;exitDx=0;exitDy=0;" edge="1" parent="nmrTo1Ritd_TDBO6U9mu-61" source="nmrTo1Ritd_TDBO6U9mu-17" target="nmrTo1Ritd_TDBO6U9mu-38">
          <mxGeometry width="50" height="50" relative="1" as="geometry">
            <mxPoint x="530" y="555" as="sourcePoint" />
            <mxPoint x="580" y="505" as="targetPoint" />
          </mxGeometry>
        </mxCell>
        <mxCell id="CDlkAJvuDb7qCT727NQq-49" value="" style="endArrow=none;html=1;rounded=0;entryX=0;entryY=0.3333333333333333;entryDx=0;entryDy=0;entryPerimeter=0;exitX=1;exitY=0.5;exitDx=0;exitDy=0;" edge="1" parent="nmrTo1Ritd_TDBO6U9mu-61" source="CDlkAJvuDb7qCT727NQq-91" target="nmrTo1Ritd_TDBO6U9mu-38">
          <mxGeometry width="50" height="50" relative="1" as="geometry">
            <mxPoint x="355" y="755" as="sourcePoint" />
            <mxPoint x="580" y="505" as="targetPoint" />
          </mxGeometry>
        </mxCell>
        <mxCell id="CDlkAJvuDb7qCT727NQq-48" value="" style="endArrow=none;html=1;rounded=0;entryX=0;entryY=0.3333333333333333;entryDx=0;entryDy=0;entryPerimeter=0;exitX=1;exitY=0.5;exitDx=0;exitDy=0;" edge="1" parent="nmrTo1Ritd_TDBO6U9mu-61" source="nmrTo1Ritd_TDBO6U9mu-46" target="nmrTo1Ritd_TDBO6U9mu-38">
          <mxGeometry width="50" height="50" relative="1" as="geometry">
            <mxPoint x="520" y="545" as="sourcePoint" />
            <mxPoint x="570" y="495" as="targetPoint" />
          </mxGeometry>
        </mxCell>
        <mxCell id="CDlkAJvuDb7qCT727NQq-2" value="" style="endArrow=none;html=1;rounded=0;entryX=0;entryY=0.3333333333333333;entryDx=0;entryDy=0;entryPerimeter=0;exitX=0.958;exitY=0.266;exitDx=0;exitDy=0;exitPerimeter=0;" edge="1" parent="nmrTo1Ritd_TDBO6U9mu-61" source="nmrTo1Ritd_TDBO6U9mu-44" target="nmrTo1Ritd_TDBO6U9mu-38">
          <mxGeometry width="50" height="50" relative="1" as="geometry">
            <mxPoint x="500" y="525" as="sourcePoint" />
            <mxPoint x="550" y="475" as="targetPoint" />
          </mxGeometry>
        </mxCell>
        <mxCell id="CDlkAJvuDb7qCT727NQq-47" value="" style="endArrow=none;html=1;rounded=0;entryX=0;entryY=0.3333333333333333;entryDx=0;entryDy=0;entryPerimeter=0;exitX=1;exitY=0;exitDx=0;exitDy=0;" edge="1" parent="nmrTo1Ritd_TDBO6U9mu-61" source="nmrTo1Ritd_TDBO6U9mu-43" target="nmrTo1Ritd_TDBO6U9mu-38">
          <mxGeometry width="50" height="50" relative="1" as="geometry">
            <mxPoint x="510" y="535" as="sourcePoint" />
            <mxPoint x="560" y="485" as="targetPoint" />
          </mxGeometry>
        </mxCell>
        <mxCell id="nmrTo1Ritd_TDBO6U9mu-29" value="delete tea packet orders" style="ellipse;whiteSpace=wrap;html=1;" parent="nmrTo1Ritd_TDBO6U9mu-61" vertex="1">
          <mxGeometry x="490" y="540" width="120" height="50" as="geometry" />
        </mxCell>
        <mxCell id="nmrTo1Ritd_TDBO6U9mu-30" value="edit tea packet orders" style="ellipse;whiteSpace=wrap;html=1;" parent="nmrTo1Ritd_TDBO6U9mu-61" vertex="1">
          <mxGeometry x="360" y="520" width="120" height="50" as="geometry" />
        </mxCell>
        <mxCell id="nmrTo1Ritd_TDBO6U9mu-31" value="view tea packet orders" style="ellipse;whiteSpace=wrap;html=1;" parent="nmrTo1Ritd_TDBO6U9mu-61" vertex="1">
          <mxGeometry x="235" y="500" width="120" height="50" as="geometry" />
        </mxCell>
        <mxCell id="nmrTo1Ritd_TDBO6U9mu-32" value="add tea packet orders" style="ellipse;whiteSpace=wrap;html=1;" parent="nmrTo1Ritd_TDBO6U9mu-61" vertex="1">
          <mxGeometry x="150" y="450" width="120" height="50" as="geometry" />
        </mxCell>
        <mxCell id="nmrTo1Ritd_TDBO6U9mu-33" value="delete fertilizer requests" style="ellipse;whiteSpace=wrap;html=1;" parent="nmrTo1Ritd_TDBO6U9mu-61" vertex="1">
          <mxGeometry x="90" y="390" width="120" height="50" as="geometry" />
        </mxCell>
        <mxCell id="nmrTo1Ritd_TDBO6U9mu-34" value="edit fertilizer requests" style="ellipse;whiteSpace=wrap;html=1;" parent="nmrTo1Ritd_TDBO6U9mu-61" vertex="1">
          <mxGeometry x="70" y="320" width="120" height="50" as="geometry" />
        </mxCell>
        <mxCell id="nmrTo1Ritd_TDBO6U9mu-35" value="view fertilizer requests" style="ellipse;whiteSpace=wrap;html=1;" parent="nmrTo1Ritd_TDBO6U9mu-61" vertex="1">
          <mxGeometry x="90" y="250" width="120" height="50" as="geometry" />
        </mxCell>
        <mxCell id="nmrTo1Ritd_TDBO6U9mu-36" value="add fertilizer requests" style="ellipse;whiteSpace=wrap;html=1;" parent="nmrTo1Ritd_TDBO6U9mu-61" vertex="1">
          <mxGeometry x="160" y="190" width="120" height="50" as="geometry" />
        </mxCell>
        <mxCell id="nmrTo1Ritd_TDBO6U9mu-37" value="view tea leaves quantity" style="ellipse;whiteSpace=wrap;html=1;" parent="nmrTo1Ritd_TDBO6U9mu-61" vertex="1">
          <mxGeometry x="235" y="130" width="120" height="50" as="geometry" />
        </mxCell>
        <mxCell id="CDlkAJvuDb7qCT727NQq-92" value="Confirm leaves collection" style="ellipse;whiteSpace=wrap;html=1;" vertex="1" parent="nmrTo1Ritd_TDBO6U9mu-61">
          <mxGeometry x="360" y="90" width="120" height="50" as="geometry" />
        </mxCell>
        <mxCell id="nmrTo1Ritd_TDBO6U9mu-7" value="Supplier" style="shape=umlActor;verticalLabelPosition=bottom;verticalAlign=top;html=1;outlineConnect=0;" parent="nmrTo1Ritd_TDBO6U9mu-61" vertex="1">
          <mxGeometry x="730" y="290" width="30" height="60" as="geometry" />
        </mxCell>
        <mxCell id="CDlkAJvuDb7qCT727NQq-74" value="" style="endArrow=none;html=1;rounded=0;entryX=0;entryY=0.3333333333333333;entryDx=0;entryDy=0;entryPerimeter=0;exitX=1;exitY=0;exitDx=0;exitDy=0;" edge="1" parent="nmrTo1Ritd_TDBO6U9mu-61" source="nmrTo1Ritd_TDBO6U9mu-30" target="nmrTo1Ritd_TDBO6U9mu-7">
          <mxGeometry width="50" height="50" relative="1" as="geometry">
            <mxPoint x="390" y="180" as="sourcePoint" />
            <mxPoint x="440" y="130" as="targetPoint" />
          </mxGeometry>
        </mxCell>
        <mxCell id="CDlkAJvuDb7qCT727NQq-75" value="" style="endArrow=none;html=1;rounded=0;entryX=0;entryY=0.3333333333333333;entryDx=0;entryDy=0;entryPerimeter=0;exitX=1;exitY=0;exitDx=0;exitDy=0;" edge="1" parent="nmrTo1Ritd_TDBO6U9mu-61" source="nmrTo1Ritd_TDBO6U9mu-29" target="nmrTo1Ritd_TDBO6U9mu-7">
          <mxGeometry width="50" height="50" relative="1" as="geometry">
            <mxPoint x="400" y="190" as="sourcePoint" />
            <mxPoint x="450" y="140" as="targetPoint" />
          </mxGeometry>
        </mxCell>
        <mxCell id="CDlkAJvuDb7qCT727NQq-77" value="" style="endArrow=none;html=1;rounded=0;entryX=1;entryY=0.5;entryDx=0;entryDy=0;exitX=0;exitY=0.3333333333333333;exitDx=0;exitDy=0;exitPerimeter=0;" edge="1" parent="nmrTo1Ritd_TDBO6U9mu-61" source="nmrTo1Ritd_TDBO6U9mu-7" target="nmrTo1Ritd_TDBO6U9mu-37">
          <mxGeometry width="50" height="50" relative="1" as="geometry">
            <mxPoint x="390" y="180" as="sourcePoint" />
            <mxPoint x="440" y="130" as="targetPoint" />
          </mxGeometry>
        </mxCell>
        <mxCell id="CDlkAJvuDb7qCT727NQq-78" value="" style="endArrow=none;html=1;rounded=0;entryX=0;entryY=0.3333333333333333;entryDx=0;entryDy=0;entryPerimeter=0;exitX=1;exitY=0.5;exitDx=0;exitDy=0;" edge="1" parent="nmrTo1Ritd_TDBO6U9mu-61" source="nmrTo1Ritd_TDBO6U9mu-33" target="nmrTo1Ritd_TDBO6U9mu-7">
          <mxGeometry width="50" height="50" relative="1" as="geometry">
            <mxPoint x="400" y="190" as="sourcePoint" />
            <mxPoint x="450" y="140" as="targetPoint" />
          </mxGeometry>
        </mxCell>
        <mxCell id="CDlkAJvuDb7qCT727NQq-79" value="" style="endArrow=none;html=1;rounded=0;entryX=0;entryY=0.3333333333333333;entryDx=0;entryDy=0;entryPerimeter=0;exitX=1;exitY=0.5;exitDx=0;exitDy=0;" edge="1" parent="nmrTo1Ritd_TDBO6U9mu-61" source="nmrTo1Ritd_TDBO6U9mu-35" target="nmrTo1Ritd_TDBO6U9mu-7">
          <mxGeometry width="50" height="50" relative="1" as="geometry">
            <mxPoint x="410" y="200" as="sourcePoint" />
            <mxPoint x="460" y="150" as="targetPoint" />
          </mxGeometry>
        </mxCell>
        <mxCell id="CDlkAJvuDb7qCT727NQq-81" value="" style="endArrow=none;html=1;rounded=0;entryX=0;entryY=0.3333333333333333;entryDx=0;entryDy=0;entryPerimeter=0;exitX=1;exitY=0.5;exitDx=0;exitDy=0;" edge="1" parent="nmrTo1Ritd_TDBO6U9mu-61" source="nmrTo1Ritd_TDBO6U9mu-34" target="nmrTo1Ritd_TDBO6U9mu-7">
          <mxGeometry width="50" height="50" relative="1" as="geometry">
            <mxPoint x="400" y="190" as="sourcePoint" />
            <mxPoint x="450" y="140" as="targetPoint" />
          </mxGeometry>
        </mxCell>
        <mxCell id="CDlkAJvuDb7qCT727NQq-82" value="" style="endArrow=none;html=1;rounded=0;entryX=0;entryY=0.3333333333333333;entryDx=0;entryDy=0;entryPerimeter=0;exitX=1;exitY=0.5;exitDx=0;exitDy=0;" edge="1" parent="nmrTo1Ritd_TDBO6U9mu-61" source="nmrTo1Ritd_TDBO6U9mu-36" target="nmrTo1Ritd_TDBO6U9mu-7">
          <mxGeometry width="50" height="50" relative="1" as="geometry">
            <mxPoint x="410" y="200" as="sourcePoint" />
            <mxPoint x="460" y="150" as="targetPoint" />
          </mxGeometry>
        </mxCell>
        <mxCell id="CDlkAJvuDb7qCT727NQq-83" value="" style="endArrow=none;html=1;rounded=0;entryX=0;entryY=0.3333333333333333;entryDx=0;entryDy=0;entryPerimeter=0;exitX=1;exitY=0.5;exitDx=0;exitDy=0;" edge="1" parent="nmrTo1Ritd_TDBO6U9mu-61" source="nmrTo1Ritd_TDBO6U9mu-32" target="nmrTo1Ritd_TDBO6U9mu-7">
          <mxGeometry width="50" height="50" relative="1" as="geometry">
            <mxPoint x="420" y="210" as="sourcePoint" />
            <mxPoint x="470" y="160" as="targetPoint" />
          </mxGeometry>
        </mxCell>
        <mxCell id="CDlkAJvuDb7qCT727NQq-84" value="" style="endArrow=none;html=1;rounded=0;entryX=0;entryY=0.3333333333333333;entryDx=0;entryDy=0;entryPerimeter=0;exitX=1;exitY=0.5;exitDx=0;exitDy=0;" edge="1" parent="nmrTo1Ritd_TDBO6U9mu-61" source="nmrTo1Ritd_TDBO6U9mu-31" target="nmrTo1Ritd_TDBO6U9mu-7">
          <mxGeometry width="50" height="50" relative="1" as="geometry">
            <mxPoint x="430" y="220" as="sourcePoint" />
            <mxPoint x="480" y="170" as="targetPoint" />
          </mxGeometry>
        </mxCell>
        <mxCell id="CDlkAJvuDb7qCT727NQq-99" value="" style="endArrow=none;html=1;rounded=0;entryX=1;entryY=1;entryDx=0;entryDy=0;exitX=0;exitY=0.3333333333333333;exitDx=0;exitDy=0;exitPerimeter=0;" edge="1" parent="nmrTo1Ritd_TDBO6U9mu-61" source="nmrTo1Ritd_TDBO6U9mu-7" target="CDlkAJvuDb7qCT727NQq-92">
          <mxGeometry width="50" height="50" relative="1" as="geometry">
            <mxPoint x="740" y="320" as="sourcePoint" />
            <mxPoint x="365" y="165" as="targetPoint" />
          </mxGeometry>
        </mxCell>
        <mxCell id="CDlkAJvuDb7qCT727NQq-100" value="&lt;font face=&quot;Helvetica&quot; style=&quot;font-size: 15px;&quot;&gt;&amp;lt;&amp;lt;Supplier Management&amp;gt;&amp;gt;&lt;/font&gt;" style="text;html=1;align=center;verticalAlign=middle;resizable=0;points=[];autosize=1;strokeColor=none;fillColor=none;" vertex="1" parent="nmrTo1Ritd_TDBO6U9mu-61">
          <mxGeometry x="180" y="10" width="210" height="30" as="geometry" />
        </mxCell>
      </root>
    </mxGraphModel>
  </diagram>
</mxfile>
